<svg width="24" height="8" viewBox="0 0 24 8" fill="none" xmlns="http://www.w3.org/2000/svg">
<path d="M2.268 8H0.588V1.7C0.588 0.644 1.084 0.116 2.076 0.116H2.964C3.548 0.116 3.964 0.308 4.212 0.692C4.444 0.308 4.86 0.116 5.46 0.116H6.348C7.34 0.116 7.836 0.644 7.836 1.7V8H6.156V1.556C6.156 1.492 6.132 1.436 6.084 1.388C6.044 1.34 5.992 1.316 5.928 1.316H5.28C5.216 1.316 5.16 1.34 5.112 1.388C5.072 1.436 5.052 1.492 5.052 1.556V8H3.372V1.556C3.372 1.492 3.348 1.436 3.3 1.388C3.26 1.34 3.208 1.316 3.144 1.316H2.496C2.432 1.316 2.376 1.34 2.328 1.388C2.288 1.436 2.268 1.492 2.268 1.556V8ZM10.6706 6.608H12.5306V8H8.99063V0.236H12.5306V1.604H10.6706V3.428H12.4106V4.748H10.6706V6.608ZM15.1823 4.82V8H13.5023V0.236H16.4903C17.4823 0.236 17.9783 0.764 17.9783 1.82V2.72C17.9783 3.36 17.7503 3.768 17.2943 3.944C17.6943 4.088 17.8943 4.416 17.8943 4.928V8H16.2143V5.06C16.2143 4.9 16.1383 4.82 15.9863 4.82H15.1823ZM15.1823 1.376V3.644H16.0703C16.1343 3.644 16.1863 3.62 16.2263 3.572C16.2743 3.524 16.2983 3.468 16.2983 3.404V1.616C16.2983 1.552 16.2743 1.496 16.2263 1.448C16.1863 1.4 16.1343 1.376 16.0703 1.376H15.1823ZM23.509 8H21.829V1.556C21.829 1.492 21.805 1.436 21.757 1.388C21.717 1.34 21.665 1.316 21.601 1.316H20.953C20.889 1.316 20.833 1.34 20.785 1.388C20.745 1.436 20.725 1.492 20.725 1.556V8H19.045V1.7C19.045 0.644 19.541 0.116 20.533 0.116H22.021C23.013 0.116 23.509 0.644 23.509 1.7V8Z" fill="white"/>
</svg>
